Sniper 3 (2004) MultiSub DVDRip.x264.AC3 - FASTERWOLF
 
http://www.imdb.com/title/tt0408196/


Sniper 3 x264 {Ad3Sp0t01}Sniper 3 (2004) MultiSub DVDRip.x264.AC3 - FASTERWOLFSniper 3 (2004) DVDRip.x264.AC3 - FASTERWOLF.mkv
Format : Matroska
Format version : Version 2
File size : 1,10 GiB
Duration : 1h 27mn
Overall bit rate : 1 814 Kbps
Writing application : HandBrake 0.9.5
Writing library : libmkv 0.6.4.1

Video
ID : 1
Format : AVC
Format/Info : Advanced Video Codec
Format profile : High@L3.0
Format settings, CABAC : ╬¥╬▒╬╣
Format settings, ReFrames : 4 frame
Codec ID : V_MPEG4/ISO/AVC
Duration : 1h 27mn
Bit rate : 1 550 Kbps
Width : 720 ╬╡╬╣╬║╬┐╬╜╬┐╧â╧ä╬┐╬╣╧ç╬╡╬»╬▒
Height : 384 ╬╡╬╣╬║╬┐╬╜╬┐╧â╧ä╬┐╬╣╧ç╬╡╬»╬▒
Display aspect ratio : 1,85:1
Frame rate : 25,000 fps
Color space : YUV
Chroma subsampling : 4:2:0
Bit depth : 8 bits
Scan type : ╬ú╧à╬╜╬╡╧ç╬«╧é ╧â╬¼╧ü╧ë╧â╬╖
Bits/(Pixel*Frame) : 0.224
Stream size : 947 MiB (84%)
Writing library : x264 core 112
Encoding settings : cabac=1 / ref=3 / deblock=1:1:0 / analyse=0x3:0x113 / me=hex / subme=7 / psy=1 / psy_rd=1.00:0.00 / mixed_ref=0 / me_range=16 / chroma_me=1 / trellis=1 / 8x8dct=1 / cqm=0 / deadzone=21,11 / fast_pskip=1 / chroma_qp_offset=-2 / threads=3 / sliced_threads=0 / nr=0 / decimate=0 / interlaced=0 / constrained_intra=0 / bframes=3 / b_pyramid=2 / b_adapt=1 / b_bias=0 / direct=1 / weightb=0 / open_gop=0 / weightp=2 / keyint=250 / keyint_min=25 / scenecut=40 / intra_refresh=0 / rc_lookahead=40 / rc=2pass / mbtree=1 / bitrate=1550 / ratetol=1.0 / qcomp=0.60 / qpmin=3 / qpmax=51 / qpstep=4 / cplxblur=20.0 / qblur=0.5 / ip_ratio=1.40 / aq=1:1.00
Language : English
Default : ╬¥╬▒╬╣
Forced : ╬î╧ç╬╣
colour_primaries : BT.601 NTSC
transfer_characteristics : BT.709
matrix_coefficients : BT.601

╬ë╧ç╬┐╧é
ID : 2
Format : AC-3
Format/Info : Audio Coding 3
Mode extension : CM (complete main)
Format settings, Endianness : Big
Codec ID : A_AC3
Duration : 1h 27mn
Bit rate : 256 Kbps
Channel(s) : 2 ╬║╬▒╬╜╬¼╬╗╬╣╬▒
Channel positions : Front: L R
Sampling rate : 48,0 KHz
Bit depth : 16 bits
Stream size : 159 MiB (14%)
Language : English
Default : ╬¥╬▒╬╣
Forced : ╬î╧ç╬╣

╬Ü╬╡╬»╬╝╬╡╬╜╬┐
ID : 3
Format : VobSub
Codec ID : S_VOBSUB
Codec ID/Info : The same subtitle format used on DVDs
Language : Greek
Default : ╬¥╬▒╬╣
Forced : ╬î╧ç╬╣

╬£╬╡╬╜╬┐╧ì
00:00:00.000 : Chapter 1
00:08:43.120 : Chapter 2
00:17:16.800 : Chapter 3
00:23:19.480 : Chapter 4
00:32:16.600 : Chapter 5
00:36:41.600 : Chapter 6
00:46:59.360 : Chapter 7
00:54:02.720 : Chapter 8
01:00:37.120 : Chapter 9
01:05:04.080 : Chapter 10
01:10:38.920 : Chapter 11
01:17:33.920 : Chapter 12

Riper... FASTERWOLF

Source.........DVD

Language:English

╬╡╬╜╧â╧ë╬╝╬▒╧ä╧ë╬╝╬¡╬╜╬┐╬╣ ╧à╧Ç╧î╧ä╬╣╧ä╬╗╬┐╬╣ greek,integrated subtitles greek

Subtitles:BRAZILIAN,BULGARIAN,Danish,English,ESTONIAN,Farsi,FINNISH,
Hungarian,Icelandic,Indonesian,Italian,LITHUANIAN,Norwegian,Polish,
Portuguese,ROMANIAN,Spanish,SWEDISH,Vietnamese

 
http://s12.postimg.org/csbkonx31/image.jpg
 
http://s12.postimg.org/50uuq3sxp/image.jpg
 
http://s12.postimg.org/ij1r2e531/image.jpg
 
http://s12.postimg.org/shmpoveil/image.jpg